<svg id="Layer_1" data-name="Layer 1" xmlns="http://www.w3.org/2000/svg" viewBox="0 0 119.16 101.41"><defs><style>.cls-1{font-size:12px;fill:#050000;font-family:ComicSansMS, Comic Sans MS;}.cls-2{fill:#e8d310;opacity:0.72;}</style></defs><title>magiccitat</title><text class="cls-1" transform="translate(9.91 65.56) rotate(-30)">MAGIC CHEESE</text><path class="cls-2" d="M101.81,64.2c-2.33,25-4.9,33.24-7.34,33.33C89.81,97.69,86.3,68.07,78,67.87c-5-.12-7.13,10.27-14.06,10.4-5.69.1-7.49-6.84-12.36-6.45C44,72.42,41.3,89.7,37,89.27S33.46,71,27.21,69.4c-6-1.53-12.47,13.39-18,11.92-3.88-1-5.12-9.43-5.5-17.12A108.73,108.73,0,0,1,8.25,17.43c.67-2,1.39-3.94,2.14-5.81a54.23,54.23,0,0,1,4.9-2.76C29.05,2,41.71,3.16,61.45,4.59,69,5.13,81.69,6,98.75,7a27.79,27.79,0,0,1,3.06,5.81c3,7.9,1.5,15.13.92,18.34C101.49,38,100.6,48.35,101.81,64.2Z" transform="translate(-2.92 3.88)"/></svg>