<svg id="Layer_1" data-name="Layer 1" xmlns="http://www.w3.org/2000/svg" viewBox="0 0 76.07 76.07"><defs><style>.cls-1{fill:#fff;}.cls-1,.cls-3{stroke:#000;}.cls-1,.cls-2,.cls-3,.cls-4,.cls-6{stroke-miterlimit:10;}.cls-1,.cls-3,.cls-4,.cls-6{stroke-width:0.5px;}.cls-2{fill:#ddc61d;stroke:#a25200;stroke-width:3px;}.cls-3,.cls-4{fill:none;}.cls-4{stroke:#c47d20;}.cls-5,.cls-6{fill:#89111a;}.cls-6{stroke:#89111a;}</style></defs><title>pizza</title><circle class="cls-1" cx="38.04" cy="38.04" r="36.54"/><circle class="cls-2" cx="38.04" cy="38.04" r="36.54"/><line class="cls-3" x1="10.09" y1="14.5" x2="10.09" y2="14.5"/><line class="cls-3" x1="66.06" y1="61.47" x2="66.06" y2="61.47"/><line class="cls-4" x1="38.15" y1="1.82" x2="37.92" y2="74.84"/><line class="cls-4" x1="1.5" y1="38.04" x2="74.57" y2="38.04"/><line class="cls-4" x1="12.98" y1="11.45" x2="62.85" y2="64.84"/><line class="cls-4" x1="61.15" y1="9.75" x2="15.09" y2="66.47"/><circle class="cls-5" cx="20.04" cy="30.58" r="2.33"/><circle class="cls-6" cx="32.34" cy="14.46" r="2.25"/><circle class="cls-6" cx="49.31" cy="15.07" r="2.87"/><circle class="cls-5" cx="59" cy="30.41" r="2.16"/><circle class="cls-5" cx="65.28" cy="53.46" r="2.43"/><circle class="cls-5" cx="51.5" cy="44.81" r="2.19"/><circle class="cls-5" cx="66.62" cy="45.37" r="2.75"/><circle class="cls-5" cx="31.24" cy="58.27" r="2.38"/><circle class="cls-5" cx="8.57" cy="44.19" r="2.48"/><circle class="cls-6" cx="12.87" cy="21.51" r="1.82"/><circle class="cls-5" cx="20.49" cy="52.14" r="1.87"/><circle class="cls-5" cx="26.95" cy="44.53" r="1.91"/><circle class="cls-5" cx="65.28" cy="21.36" r="2.43"/><circle class="cls-5" cx="48.93" cy="32.8" r="1.57"/><circle class="cls-6" cx="22.24" cy="13.66" r="2.2"/><circle class="cls-5" cx="34.07" cy="28.3" r="1.73"/><circle class="cls-5" cx="44.29" cy="50.89" r="2.16"/><circle class="cls-5" cx="43.92" cy="65.63" r="2.52"/></svg>